# xmcd
#
# Track frame offsets:
#	150
#	15341
#	32756
#	52396
#	67111
#	78423
#	98336
#	115384
#	128242
#	142577
#	160771
#	178327
#	194298
#	209665
#	223827
#	242742
#	254628
#
# Disc length: 3680 seconds
#
# Revision: 0
# Processed by: cddbd v1.5.2PL0 Copyright (c) Steve Scherf et al.
# Submitted via: dBpowerAMP V4.0
#
DISCID=fb0e5e11
DTITLE=The Boss Hoss - Internashville Urban Hymns
DYEAR=2005
DGENRE=Country
TTITLE0=Yee Haw
TTITLE1=Hey Ya
TTITLE2=Toxic
TTITLE3=Loser
TTITLE4=Sabotage
TTITLE5=Hot In Here
TTITLE6=Seven Nation Army
TTITLE7=Drowned In Lake Daniels
TTITLE8=A Little Less Conversation
TTITLE9=Hey Joe
TTITLE10=Eyes Without A Face
TTITLE11=Unbelievable
TTITLE12=All The Things She Said
TTITLE13=Remedy
TTITLE14=Word Up
TTITLE15=Like Ice In The Sunshine
TTITLE16=Without Me
EXTD=
EXTT0=
EXTT1=
EXTT2=
EXTT3=
EXTT4=
EXTT5=
EXTT6=
EXTT7=
EXTT8=
EXTT9=
EXTT10=
EXTT11=
EXTT12=
EXTT13=
EXTT14=
EXTT15=
EXTT16=
PLAYORDER=
